<svg width="72" height="73" viewBox="0 0 72 73" fill="none" xmlns="http://www.w3.org/2000/svg">
<rect width="72" height="72" transform="translate(0 0.5)" fill="#E3F5FF" fill-opacity="0.15"/>
<path d="M20.5219 15.061C17.4962 15.7401 15.2956 17.7601 14.2813 20.7859L14.032 21.5165L14.0062 36.6025C13.989 47.313 14.0062 51.8345 14.075 52.2041C14.6853 55.5308 17.2125 58.1181 20.5477 58.823C21.4245 59.0121 50.5648 59.0121 51.4416 58.823C54.7768 58.1181 57.3041 55.5308 57.9144 52.2041C57.9831 51.8345 58.0003 47.313 57.9831 36.6454C57.9573 22.5395 57.9488 21.5681 57.8026 21.0953C56.8829 18.0266 54.9144 16.0581 51.8456 15.1383C51.3728 14.9922 50.4187 14.9836 36.1666 14.9664C24.4503 14.9578 20.883 14.9836 20.5219 15.061ZM42.0548 22.1956C43.1121 22.72 43.8342 23.6655 44.0749 24.8604C44.1952 25.4707 44.1522 25.8575 43.903 26.2013C43.3872 26.932 42.3127 26.8718 41.8399 26.0982C41.7454 25.9435 41.668 25.7028 41.668 25.5652C41.668 25.4277 41.5906 25.144 41.4961 24.9463C41.1952 24.3274 40.4302 24.1211 39.8543 24.5079C39.4417 24.783 39.3385 25.0409 39.3643 25.6512C39.4159 26.485 39.6394 26.7429 40.9545 27.4993C42.4244 28.3503 42.966 28.7715 43.3786 29.3904C44.8657 31.6254 43.9631 34.5996 41.5649 35.3217C39.8113 35.8546 37.9975 35.0466 37.1981 33.379C36.8199 32.5881 36.7425 31.6426 37.0176 31.2042C37.3958 30.6111 38.0577 30.4306 38.6594 30.7658C39.0634 30.9893 39.2525 31.3245 39.3213 31.8919C39.3643 32.2701 39.4331 32.4076 39.6909 32.6655C39.9746 32.9492 40.0692 32.9921 40.413 32.9921C41.3328 32.9921 41.8313 32.2959 41.582 31.3503C41.4101 30.7228 41.1437 30.4735 39.8886 29.7515C39.201 29.3561 38.4961 28.8747 38.1866 28.591C36.519 27.0437 36.3987 24.4134 37.9288 22.8833C38.7024 22.1097 39.5448 21.8002 40.7053 21.8518C41.3242 21.8776 41.5219 21.9291 42.0548 22.1956ZM26.1093 22.2558C26.9259 22.6512 27.4847 23.2099 27.8973 24.0438L28.2153 24.6885V25.8919C28.2153 27.0781 28.2067 27.1125 27.9317 27.697L27.6566 28.2902L27.9918 28.6512C28.6623 29.3733 28.946 30.1985 28.946 31.4019C28.946 32.7257 28.6193 33.5939 27.8113 34.3847C27.5792 34.6082 27.1322 34.9176 26.8142 35.0724L26.2383 35.356L24.0463 35.3818C21.9747 35.399 21.8371 35.399 21.5706 35.2271C21.4159 35.1325 21.2182 34.9348 21.1237 34.7801C20.9603 34.505 20.9517 34.3331 20.9517 28.6942C20.9517 22.2128 20.9259 22.5137 21.5535 22.0925C21.8457 21.8948 21.8887 21.8948 23.6595 21.9206L25.4646 21.9463L26.1093 22.2558ZM35.1179 22.0237C35.5649 22.2558 35.7626 22.5567 35.797 23.038C35.8228 23.3905 35.7884 23.5624 35.6594 23.7687C35.35 24.2587 35.1179 24.3532 34.0434 24.3876L33.072 24.4134V25.9091V27.4048H33.6136C34.5334 27.4048 35.1351 27.8947 35.1351 28.6426C35.1351 29.4248 34.5677 29.8976 33.6566 29.8976H33.072V31.3933V32.889L34.0004 32.9234C35.0405 32.9578 35.3844 33.0867 35.6508 33.5337C35.9861 34.0752 35.797 34.9005 35.264 35.2271C35.0061 35.3818 34.8428 35.399 33.2354 35.399C31.2153 35.399 31.052 35.3474 30.7511 34.6856C30.5878 34.3417 30.5792 34.058 30.5792 28.6426V22.9607L30.7769 22.591C31.1122 21.9549 31.3013 21.9034 33.2268 21.9034C34.4818 21.9034 34.946 21.9291 35.1179 22.0237ZM51.1322 22.1011C51.2955 22.2042 51.4932 22.4277 51.5705 22.591C52.0347 23.5108 51.3385 24.3962 50.1608 24.3962H49.6622V29.399C49.6622 33.9979 49.6536 34.4363 49.5075 34.7113C49.0519 35.6225 47.7797 35.6225 47.3241 34.7113C47.178 34.4363 47.1694 33.9979 47.1694 29.399V24.3962H46.6795C45.9316 24.3876 45.4846 24.1555 45.2611 23.6569C44.9689 22.9865 45.1752 22.3675 45.8027 22.0581C46.0605 21.9206 46.3786 21.9034 48.4674 21.9034C50.7883 21.9034 50.8485 21.9034 51.1322 22.1011ZM42.1408 38.5279C43.3442 38.846 44.221 39.6798 44.6422 40.9004C44.7969 41.3474 44.8055 41.6827 44.8055 46.2729V51.1726L44.6164 51.4391C44.0663 52.2041 42.9316 52.1268 42.5104 51.2929C42.3815 51.0437 42.3557 50.7514 42.3557 49.3675C42.3557 47.9491 42.3385 47.6912 42.201 47.442C41.8141 46.7285 40.817 46.6339 40.2497 47.2614C40.0949 47.4334 40.0778 47.6053 40.0348 49.2729C39.9832 51.3187 39.9316 51.5164 39.3299 51.8259C38.7712 52.1096 38.2554 52.0064 37.7998 51.5164L37.5849 51.2844V46.2041V41.1153L37.8686 40.5136C38.1609 39.8947 38.7368 39.2242 39.2439 38.9062C39.9832 38.4506 41.2382 38.2873 42.1408 38.5279ZM26.1007 38.6569C27.4245 39.0695 28.456 40.1612 28.8256 41.5451C29.0062 42.1984 28.9976 48.2414 28.817 48.9205C28.5248 50.0465 27.7941 50.9835 26.8228 51.4993C25.9546 51.9462 25.542 52.0064 23.5133 51.972C21.8801 51.9462 21.7168 51.9291 21.4933 51.7657C20.9345 51.3531 20.9517 51.611 20.9517 45.1984C20.9517 39.5595 20.9603 39.3875 21.1237 39.1125C21.4761 38.5365 21.6394 38.4936 23.7196 38.4936C25.3013 38.4936 25.6537 38.5194 26.1007 38.6569ZM35.2554 38.6569C36.0376 39.1726 36.0119 40.3589 35.2038 40.7887C34.9975 40.8918 34.6537 40.9434 34.0004 40.9692L33.072 41.0036V42.4993V43.995H33.6566C34.5677 43.995 35.1351 44.4678 35.1351 45.25C35.1351 45.9978 34.5334 46.4878 33.6136 46.4878H33.072V47.9921V49.4964H33.9574C34.9718 49.4964 35.3156 49.6167 35.6336 50.0981C36.0462 50.7084 35.754 51.611 35.0491 51.9033C34.8944 51.9634 34.2411 51.9892 33.1064 51.972C31.1723 51.9462 31.0778 51.9119 30.7511 51.25C30.5878 50.9147 30.5792 50.7428 30.5792 45.2328C30.5792 39.8345 30.5878 39.5509 30.7511 39.207C31.052 38.5451 31.2153 38.4936 33.244 38.4936C34.8256 38.4936 35.0319 38.5108 35.2554 38.6569ZM49.0433 38.6655C49.1981 38.76 49.3958 38.9577 49.4903 39.1125C49.6536 39.3875 49.6622 39.5595 49.6622 44.4334V49.4706L50.2983 49.5136C51.029 49.5652 51.3642 49.7457 51.5963 50.2356C51.8628 50.803 51.6565 51.4821 51.0978 51.8259C50.8485 51.9806 50.6938 51.9892 49.4044 51.972C48.0978 51.9462 47.9688 51.9291 47.7196 51.7571C47.1522 51.3531 47.1694 51.5766 47.1694 45.2242C47.1694 39.9291 47.178 39.4563 47.3241 39.1812C47.6422 38.5451 48.4502 38.3045 49.0433 38.6655Z" fill="white"/>
<path d="M23.4453 25.9949V27.5938L23.686 27.5336C23.8149 27.4992 24.176 27.4476 24.4854 27.4132C25.4654 27.3101 25.7662 26.9491 25.7662 25.8574C25.7662 24.7313 25.4052 24.3961 24.2018 24.3961H23.4453V25.9949Z" fill="white"/>
<path d="M24.0728 30.0266C23.5571 30.2501 23.4453 30.5681 23.4453 31.806V32.9062H24.5456C25.7662 32.9062 25.9553 32.8461 26.2562 32.3991C26.4195 32.1584 26.4539 31.9951 26.4539 31.4535C26.4539 30.3017 26.0585 29.8977 24.9496 29.8977C24.623 29.9063 24.2189 29.9578 24.0728 30.0266Z" fill="white"/>
<path d="M40.7658 40.9519C40.5767 41.0121 40.4134 41.0723 40.4048 41.0723C40.3962 41.0723 40.3102 41.2012 40.2157 41.3645C40.0523 41.6224 40.0352 41.7857 40.0352 43.0751V44.502L40.3188 44.4419C40.6884 44.3559 41.7286 44.3645 42.081 44.4505L42.3561 44.5278V43.1611C42.3561 42.035 42.3303 41.7513 42.2013 41.5106C41.9263 40.9519 41.3675 40.737 40.7658 40.9519Z" fill="white"/>
<path d="M23.4453 45.2327V49.4963H24.3737C25.5255 49.4963 25.9381 49.3244 26.2562 48.7227C26.4539 48.3531 26.4539 48.3273 26.4539 45.2241C26.4539 42.2757 26.4453 42.078 26.282 41.76C26.1874 41.5795 25.9897 41.3388 25.835 41.227C25.5857 41.0551 25.4396 41.0293 24.5026 41.0035L23.4453 40.9691V45.2327Z" fill="white"/>
</svg>
