<svg width="72" height="73" viewBox="0 0 72 73" fill="none" xmlns="http://www.w3.org/2000/svg">
<rect width="72" height="72" transform="translate(0 0.5)" fill="#E3F5FF" fill-opacity="0.15"/>
<path d="M31.8445 14.5906C29.4254 14.8058 27.4109 15.1329 25.5169 15.6237C20.1192 17.0269 17.7431 19.2652 19.3186 21.4863C20.8165 23.5955 26.0335 25.2828 32.4643 25.7391C34.0914 25.851 38.0342 25.851 39.6613 25.7391C46.4881 25.2484 51.9375 23.3716 53.0309 21.1161C54.4427 18.1977 49.441 15.5462 40.7977 14.625C39.36 14.4787 33.4199 14.4528 31.8445 14.5906Z" fill="white"/>
<path d="M18.8034 22.1233C18.7776 22.1663 18.6743 22.4246 18.5882 22.6915C18.4246 23.1477 18.416 23.4318 18.416 26.4708C18.416 29.4839 18.4332 29.7938 18.5796 30.2414C19.0617 31.6361 20.3186 32.8327 22.488 33.9605C29.4784 37.5848 42.65 37.5848 49.6404 33.9605C51.8098 32.8327 53.0667 31.6361 53.5488 30.2414C53.6951 29.8024 53.7123 29.4925 53.7123 26.5052C53.7123 23.4921 53.7037 23.2166 53.5402 22.6915C53.3508 22.0975 53.2216 21.9253 53.1442 22.1835C52.774 23.3543 51.8098 24.2411 49.9675 25.0933C44.3373 27.719 33.206 28.2442 25.5183 26.2555C22.8324 25.5668 21.0589 24.7404 19.8881 23.6298C19.4577 23.2252 19.0186 22.5365 19.0186 22.261C19.0186 22.0975 18.8723 22.0028 18.8034 22.1233Z" fill="white"/>
<path d="M18.7 33.1943L18.459 33.7022V37.2749V40.8476L18.7947 41.5277C20.1549 44.2395 24.7779 46.3745 31.0279 47.1751C36.9508 47.9327 43.6485 47.2612 48.1423 45.4619C50.7336 44.4203 52.5845 43.017 53.3249 41.5363L53.6692 40.8476V37.2749V33.7022L53.4282 33.1857L53.1785 32.6692L53.0408 32.8844C52.1541 34.193 50.8111 35.2002 48.6589 36.1558C40.8678 39.6251 27.395 39.0483 21.2999 34.9936C20.3788 34.3823 19.7675 33.8228 19.3113 33.1943L18.9325 32.6864L18.7 33.1943Z" fill="white"/>
<path d="M18.7009 44.2911L18.4599 44.8076L18.4341 48.1995C18.4082 51.1696 18.4254 51.643 18.5546 52.0304C19.1055 53.735 20.8704 55.2415 23.7113 56.4296C25.8807 57.3421 28.5495 57.9792 31.8897 58.3838C33.1896 58.5387 38.9404 58.5387 40.2403 58.3838C47.6525 57.4799 52.5682 55.1382 53.5754 52.0304C53.7046 51.643 53.7218 51.1696 53.6959 48.1995L53.6701 44.8076L53.4291 44.2911C53.1966 43.8004 53.1794 43.7832 53.0589 43.9467C52.1463 45.2208 51.01 46.1248 49.2624 46.9684C43.3911 49.8007 33.6373 50.3345 26.2509 48.2339C22.7299 47.2353 20.4485 45.8751 19.0711 43.9467C18.9506 43.7832 18.9334 43.8004 18.7009 44.2911Z" fill="white"/>
</svg>
