<svg width="72" height="73" viewBox="0 0 72 73" fill="none" xmlns="http://www.w3.org/2000/svg">
<rect width="72" height="72" transform="translate(0 0.5)" fill="#E3F5FF" fill-opacity="0.15"/>
<path d="M33.0019 14.0357C28.494 15.0003 25.0271 18.4863 24.1198 22.9751C23.8429 24.3121 23.8429 26.2796 24.1198 27.6167C25.0462 32.201 28.7423 35.8111 33.3171 36.6134C34.5587 36.8235 36.507 36.8044 37.7008 36.5561C42.2087 35.6392 45.7234 32.1246 46.6402 27.6167C46.9172 26.2796 46.9172 24.3121 46.6402 22.9751C45.7711 18.6773 42.5526 15.2963 38.2452 14.1407C37.4716 13.9402 37.0896 13.902 35.6188 13.8733C34.1671 13.8446 33.7564 13.8733 33.0019 14.0357ZM35.7812 17.8655C35.8671 17.9323 36.4402 18.8301 37.0514 19.852C37.6722 20.8739 38.1879 21.743 38.207 21.7717C38.2357 21.829 37.1565 22.5262 37.0609 22.5262C37.0418 22.5262 36.6694 21.9245 36.23 21.1891C35.7907 20.4537 35.3991 19.852 35.3705 19.852C35.2559 19.852 33.7469 22.3447 33.8042 22.4307C33.8328 22.4784 34.1002 22.6503 34.3963 22.8222C34.6924 22.9942 35.0171 23.2138 35.1126 23.3093C35.3323 23.529 35.3323 24.0065 35.1126 24.2262C34.9025 24.4363 31.1205 25.9644 30.8148 25.9644C30.471 25.9644 30.2513 25.802 30.1367 25.4773C29.9935 25.0762 29.9935 21.6953 30.1367 21.2941C30.3564 20.6734 30.7862 20.6638 31.7508 21.2368C32.3047 21.5616 32.4862 21.638 32.5721 21.5425C32.6295 21.4756 33.1643 20.6542 33.7469 19.7087C34.339 18.7632 34.893 17.9323 34.9789 17.8655C35.0649 17.8082 35.2463 17.7509 35.38 17.7509C35.5137 17.7509 35.6952 17.8082 35.7812 17.8655ZM40.6233 23.8824C41.7026 24.3121 42.6576 24.7419 42.7531 24.8374C42.9823 25.0666 42.9728 25.5346 42.7436 25.7638C42.6385 25.8689 42.2756 26.1172 41.9222 26.3178C41.5784 26.5088 41.3205 26.7285 41.3396 26.7858C41.3587 26.8431 41.9031 27.674 42.5335 28.629C43.67 30.3481 43.8037 30.6347 43.5936 31.0262C43.4217 31.351 42.9728 31.4083 40.6711 31.4083H38.4362V30.6442V29.8802H40.0598H41.6835L40.9003 28.6863C40.461 28.0369 40.0694 27.4925 40.0312 27.4925C39.9834 27.4925 39.6587 27.6644 39.3053 27.8745C38.4171 28.3998 37.9874 28.3712 37.7772 27.7695C37.6435 27.3779 37.634 23.9683 37.7677 23.6054C37.9014 23.2711 38.1211 23.0992 38.4267 23.0992C38.5604 23.0992 39.5537 23.4526 40.6233 23.8824ZM30.0317 26.8813C30.5761 27.206 30.6047 27.2442 30.4806 27.4352C30.1081 28.0273 29.0766 29.7751 29.0766 29.8229C29.0766 29.8515 29.812 29.8802 30.7002 29.8802H32.3238V29.1734C32.3238 28.0751 32.5339 27.6835 33.1261 27.6835C33.4604 27.6835 36.698 30.0998 36.7744 30.415C36.8031 30.5392 36.8031 30.7493 36.7744 30.8734C36.698 31.1886 33.4604 33.6049 33.1261 33.6049C32.5339 33.6049 32.3238 33.2133 32.3238 32.115V31.4083H30.089C27.3766 31.4083 27.071 31.3319 27.071 30.6347C27.071 30.4532 29.3154 26.5374 29.4204 26.5374C29.43 26.5374 29.707 26.6903 30.0317 26.8813Z" fill="white"/>
<path d="M31.5586 23.5195V24.2358L32.2462 23.9493C32.6187 23.7965 32.9434 23.6533 32.9625 23.6341C33.0007 23.5959 31.7019 22.8128 31.6159 22.8128C31.5872 22.8128 31.5586 23.128 31.5586 23.5195Z" fill="white"/>
<path d="M39.1992 25.5442C39.1992 25.9358 39.2279 26.251 39.2565 26.251C39.3425 26.251 40.6414 25.4678 40.6032 25.4296C40.5841 25.4105 40.2593 25.2673 39.8869 25.1145L39.1992 24.8279V25.5442Z" fill="white"/>
<path d="M33.8516 30.6442C33.8516 31.0644 33.8707 31.4082 33.8993 31.4082C33.9853 31.4082 34.9021 30.7015 34.9021 30.6442C34.9021 30.5868 33.9853 29.8801 33.8993 29.8801C33.8707 29.8801 33.8516 30.2239 33.8516 30.6442Z" fill="white"/>
<path d="M20.738 32.1913C18.3599 32.9936 17.9014 33.1751 18.016 33.2801C18.0829 33.347 18.952 33.9773 19.9357 34.6841L21.7408 35.9734L23.8515 35.2666C25.0167 34.8751 26.029 34.5408 26.0959 34.5121C26.1914 34.4739 26.1054 34.3211 25.8094 33.9773C25.2554 33.3279 24.5296 32.325 24.1857 31.7138C24.0138 31.4177 23.8324 31.2172 23.7464 31.2267C23.6509 31.2267 22.3043 31.6661 20.738 32.1913Z" fill="white"/>
<path d="M46.5723 31.7138C46.2285 32.325 45.5026 33.3279 44.9487 33.9773C44.6526 34.3211 44.5667 34.4739 44.6622 34.5121C44.729 34.5408 45.7414 34.8751 46.9066 35.2666L49.0173 35.9734L50.8224 34.6841C51.8061 33.9773 52.6752 33.347 52.742 33.2801C52.8566 33.1751 52.3982 32.9936 49.9723 32.1818C48.3869 31.6565 47.0308 31.2172 46.9639 31.2172C46.9066 31.2172 46.7251 31.4464 46.5723 31.7138Z" fill="white"/>
<path d="M25.7614 36.1263C24.7968 36.4414 24.0137 36.7279 24.0137 36.7566C24.0137 36.7852 26.5732 37.6544 29.6963 38.6954L35.3789 40.5959L41.0616 38.6954C44.1846 37.6544 46.7442 36.7852 46.7442 36.7566C46.7442 36.7279 45.961 36.4414 44.9964 36.1263L43.2486 35.5437L42.6374 35.9639C39.266 38.256 35.016 38.8291 31.1671 37.5111C30.3362 37.2246 28.9896 36.5465 28.1682 35.9925L27.4997 35.5437L25.7614 36.1263Z" fill="white"/>
<path d="M19.9361 38.829C18.9524 39.5358 18.0833 40.1661 18.0164 40.233C17.9018 40.338 18.8855 40.7009 23.8996 42.3723L29.9165 44.3779L31.7216 43.0886C32.7053 42.3818 33.5744 41.7515 33.6412 41.6847C33.7558 41.5796 32.7721 41.2167 27.7581 39.5453L21.7412 37.5397L19.9361 38.829Z" fill="white"/>
<path d="M42.9917 39.5453C37.9776 41.2167 37.0034 41.5796 37.118 41.6847C37.1849 41.7515 38.054 42.3818 39.0377 43.0886L40.8428 44.3779L46.8501 42.3723C50.1547 41.274 52.8384 40.338 52.8097 40.2903C52.762 40.2234 49.3524 37.7498 49.0945 37.6065C49.0372 37.5683 46.2866 38.447 42.9917 39.5453Z" fill="white"/>
<path d="M32.4379 44.3112C30.9575 45.3617 30.2221 45.8297 30.0407 45.8297C29.907 45.8297 28.121 45.2758 26.0867 44.5977L22.3906 43.3657V48.5994V53.8332L28.4648 55.8579C31.798 56.9753 34.5486 57.8635 34.5772 57.8444C34.5963 57.8158 34.6059 54.4253 34.5963 50.2994L34.5677 42.7926L32.4379 44.3112Z" fill="white"/>
<path d="M36.1445 50.309C36.1445 54.4635 36.1732 57.8635 36.2114 57.8635C36.2591 57.8635 39.0097 56.9562 42.3238 55.8483L48.3693 53.8332V48.5994V43.3657L44.6732 44.5977C42.639 45.2758 40.853 45.8297 40.7193 45.8297C40.5378 45.8297 39.8788 45.419 38.6086 44.5117C37.5962 43.7954 36.6221 43.0982 36.4597 42.9836L36.1445 42.764V50.309Z" fill="white"/>
</svg>
