<svg width="72" height="73" viewBox="0 0 72 73" fill="none" xmlns="http://www.w3.org/2000/svg">
<rect width="72" height="72" transform="translate(0 0.5)" fill="#E3F5FF" fill-opacity="0.15"/>
<path d="M35.1744 14.832C34.4549 14.9576 34.1123 15.1517 32.3421 16.4194L30.8004 17.5158L28.5163 17.5729C26.3236 17.63 26.1979 17.6528 25.6498 17.9383C24.976 18.2924 24.2793 18.9547 23.9938 19.5143C23.891 19.7313 23.5484 20.6564 23.2515 21.57C22.9545 22.4837 22.6005 23.3516 22.4635 23.5001C22.3378 23.6371 21.6184 24.1967 20.8874 24.7335C18.866 26.1953 18.4092 26.8463 18.3178 28.3652C18.2722 29.0847 18.3293 29.3588 18.8432 31.0033C19.163 32.0197 19.4256 32.9676 19.4256 33.1161C19.4256 33.2531 19.163 34.1782 18.8432 35.1489C18.3064 36.7935 18.2607 36.999 18.3064 37.787C18.3635 38.655 18.5805 39.2603 19.1287 39.9912C19.2543 40.1739 20.0766 40.8363 20.9445 41.4644C21.8011 42.0925 22.5891 42.7435 22.669 42.9034C22.749 43.0747 23.0573 43.9427 23.3428 44.8335C24.0737 47.0947 24.4735 47.6429 25.8211 48.2824C26.4149 48.5565 26.5862 48.5794 28.6762 48.6365L30.9032 48.6936L32.3307 49.7328C34.3864 51.2403 34.5577 51.3088 35.8711 51.3088C37.1844 51.3088 37.3557 51.2403 39.4114 49.7328L40.8389 48.6936L43.0659 48.6365C45.1673 48.5794 45.3272 48.5565 45.9325 48.2824C47.2801 47.6429 47.7483 46.9691 48.4906 44.5822C48.719 43.8285 48.9817 43.0747 49.0731 42.9034C49.153 42.7435 49.941 42.0925 50.7976 41.4644C51.6655 40.8363 52.4878 40.1739 52.6134 39.9912C53.1616 39.2603 53.3786 38.655 53.4357 37.787C53.4814 36.999 53.4357 36.7935 52.8989 35.1489C52.5792 34.1782 52.3165 33.2531 52.3165 33.1161C52.3165 32.9676 52.5792 32.0197 52.8989 31.0033C53.4128 29.3588 53.4699 29.0847 53.4243 28.3652C53.3329 26.8463 52.8532 26.161 50.8432 24.7221C50.1123 24.1967 49.4043 23.6371 49.2786 23.5001C49.1416 23.3516 48.7876 22.4837 48.4906 21.57C47.8282 19.5486 47.6798 19.2403 47.0402 18.6464C46.0809 17.7213 45.8183 17.6414 43.2372 17.5729L40.9417 17.5158L39.4 16.408C38.5549 15.7913 37.6298 15.1974 37.3443 15.0718C36.7276 14.8091 35.8711 14.7178 35.1744 14.832ZM36.5334 23.3059C36.6134 23.3859 37.2643 24.5736 37.9496 25.9669C38.6462 27.3488 39.2172 28.4908 39.2287 28.5022C39.2287 28.5136 40.3707 28.6735 41.7526 28.8677C43.1345 29.0732 44.4021 29.256 44.5734 29.2902C45.0531 29.3816 45.4642 29.8727 45.4642 30.3523C45.4642 30.7292 45.3158 30.9119 43.3857 32.842L41.3072 34.9205L41.7868 37.7299C42.2437 40.3338 42.2551 40.5508 42.0952 40.8706C41.6498 41.7271 41.2615 41.6586 38.3493 40.1397L35.8711 38.8491L33.3928 40.1397C31.9196 40.9048 30.7775 41.4416 30.5834 41.4416C30.138 41.4416 29.8525 41.2703 29.6469 40.8706C29.487 40.5508 29.4985 40.3338 29.9553 37.7299L30.4349 34.9205L28.3564 32.842C26.4264 30.9119 26.2779 30.7292 26.2779 30.3523C26.2779 29.8727 26.689 29.3816 27.1687 29.2902C27.34 29.256 28.6077 29.0732 29.9895 28.8791C31.3714 28.6735 32.5134 28.4794 32.5363 28.4451C32.5591 28.3994 33.1416 27.2346 33.8496 25.8527C34.7861 24.0254 35.2087 23.3059 35.4142 23.1917C35.7226 23.0318 36.2708 23.0889 36.5334 23.3059Z" fill="white"/>
<path d="M34.8994 28.5137C34.237 29.8157 33.9058 30.341 33.7003 30.4438C33.5404 30.5123 32.5811 30.695 31.5532 30.8435C30.5368 30.9805 29.7031 31.129 29.7031 31.1633C29.7031 31.1975 30.3427 31.8257 31.1193 32.568C31.9872 33.3788 32.5582 34.0184 32.6039 34.2011C32.6496 34.3724 32.5468 35.3203 32.3755 36.3824C32.2042 37.4102 32.09 38.2782 32.1243 38.3125C32.1585 38.3353 32.9237 37.9698 33.8259 37.4902C34.9679 36.8735 35.5961 36.6108 35.8702 36.6108C36.1557 36.6108 36.7495 36.8621 37.9144 37.4788C38.8166 37.9698 39.5818 38.3353 39.6161 38.301C39.6503 38.2782 39.5361 37.4102 39.3648 36.3824C39.1935 35.3203 39.0907 34.3724 39.1364 34.2011C39.1821 34.0184 39.7531 33.3788 40.6211 32.568C41.3977 31.8257 42.0372 31.1975 42.0372 31.1633C42.0372 31.129 41.2035 30.9805 40.1871 30.8435C39.1592 30.695 38.1999 30.5123 38.04 30.4438C37.8345 30.341 37.5033 29.8157 36.8409 28.5137C36.3384 27.5202 35.9044 26.7093 35.8702 26.7093C35.8359 26.7093 35.4019 27.5202 34.8994 28.5137Z" fill="white"/>
<path d="M16.8551 45.8956L14 48.7507V49.2647C14 49.6529 14.0685 49.8357 14.2855 50.0527C14.4568 50.224 15.6445 50.7493 17.3576 51.4231C18.8879 52.017 20.1785 52.5423 20.2241 52.5994C20.2584 52.6451 20.7723 53.9242 21.3548 55.4317C21.9486 56.9392 22.5311 58.2868 22.6567 58.4238C22.9194 58.7208 23.5018 58.8578 23.9015 58.7436C24.187 58.6522 31.302 51.6401 31.302 51.4345C31.302 51.3774 31.0621 51.149 30.7538 50.9435L30.217 50.578H28.6067C27.7274 50.578 26.6995 50.5209 26.3226 50.4524C24.7124 50.1669 23.0792 48.9677 22.3141 47.5402C22.1199 47.1633 21.7431 46.1926 21.4804 45.3703C21.0236 43.9085 21.0007 43.8742 20.4525 43.4631C20.1442 43.2347 19.8473 43.0405 19.8016 43.0405C19.7445 43.0405 18.4197 44.331 16.8551 45.8956Z" fill="white"/>
<path d="M51.2641 43.4631C50.7502 43.8628 50.7159 43.9313 50.2591 45.3703C49.9964 46.1926 49.6195 47.1633 49.4254 47.5402C48.6602 48.9677 47.0271 50.1669 45.4168 50.4524C45.0399 50.5209 44.0121 50.578 43.1327 50.578H41.5339L40.9857 50.9435C40.6887 51.149 40.4375 51.3774 40.4375 51.4345C40.4375 51.6287 47.5524 58.6522 47.8379 58.7436C48.2377 58.8578 48.8201 58.7208 49.0828 58.4238C49.2198 58.2868 49.7908 56.962 50.3733 55.4774C50.9443 53.9927 51.4582 52.725 51.5039 52.6451C51.5496 52.5766 52.8401 52.017 54.3819 51.4231C56.1063 50.7493 57.2712 50.224 57.4539 50.0527C57.6709 49.8357 57.7395 49.6529 57.7395 49.2647V48.7507L54.8844 45.8956C53.3198 44.331 51.9836 43.0405 51.915 43.0519C51.8579 43.0519 51.561 43.2461 51.2641 43.4631Z" fill="white"/>
</svg>
