<svg width="34" height="35" viewBox="0 0 34 35" fill="none" xmlns="http://www.w3.org/2000/svg">
<path d="M16.9987 3.39014C9.20703 3.39014 2.83203 9.75097 2.83203 17.5851C2.83203 24.6685 8.01703 30.5476 14.7887 31.6101V21.6935H11.1904V17.5851H14.7887V14.4543C14.7887 10.8985 16.8995 8.94347 20.1437 8.94347C21.6879 8.94347 23.3029 9.21264 23.3029 9.21264V12.7118H21.5179C19.7612 12.7118 19.2087 13.8026 19.2087 14.9218V17.5851H23.147L22.5095 21.6935H19.2087V31.6101C22.547 31.0829 25.5868 29.3796 27.7794 26.8077C29.972 24.2358 31.1729 20.9648 31.1654 17.5851C31.1654 9.75097 24.7904 3.39014 16.9987 3.39014Z" fill="#01639E"/>
</svg>
