<svg width="28" height="29" viewBox="0 0 28 29" fill="none" xmlns="http://www.w3.org/2000/svg">
<g clip-path="url(#clip0_297_481)">
<path d="M14 0.5C21.74 0.5 28 6.76 28 14.5C28 22.24 21.74 28.5 14 28.5C6.26 28.5 0 22.24 0 14.5C0 6.76 6.26 0.5 14 0.5ZM11.44 21.88C17.64 21.88 21.04 16.74 21.04 12.28V11.84C21.7 11.36 22.28 10.76 22.72 10.08C22.12 10.34 21.46 10.52 20.78 10.62C21.48 10.2 22.02 9.54 22.26 8.76C21.6 9.14 20.88 9.42 20.12 9.58C19.5 8.92 18.62 8.52 17.66 8.52C15.8 8.52 14.28 10.04 14.28 11.9C14.28 12.16 14.3 12.42 14.38 12.66C11.58 12.52 9.08 11.18 7.42 9.14C7.14 9.64 6.96 10.22 6.96 10.84C6.96 12 7.56 13.04 8.46 13.64C7.9 13.64 7.38 13.48 6.94 13.22V13.26C6.94 14.9 8.1 16.26 9.64 16.58C9.36 16.66 9.06 16.7 8.76 16.7C8.54 16.7 8.34 16.68 8.12 16.64C8.54 17.98 9.8 18.96 11.26 18.98C10.1 19.88 8.64 20.42 7.06 20.42C6.78 20.42 6.52 20.42 6.26 20.38C7.74 21.34 9.52 21.9 11.42 21.9" fill="#01639E"/>
</g>
<defs>
<clipPath id="clip0_297_481">
<rect width="28" height="28" fill="white" transform="translate(0 0.5)"/>
</clipPath>
</defs>
</svg>
