<svg width="34" height="35" viewBox="0 0 34 35" fill="none" xmlns="http://www.w3.org/2000/svg">
<path d="M18.4558 3.33475C19.4896 3.33078 20.5234 3.34117 21.5569 3.36592L21.8318 3.37583C22.1491 3.38717 22.4622 3.40133 22.8404 3.41833C24.3478 3.48917 25.3763 3.72717 26.2787 4.07708C27.2137 4.43692 28.0014 4.92425 28.789 5.71192C29.5092 6.41969 30.0666 7.27584 30.4224 8.22083C30.7724 9.12325 31.0103 10.1532 31.0812 11.6605C31.0982 12.0373 31.1123 12.3518 31.1237 12.6692L31.1322 12.944C31.1574 13.977 31.1682 15.0103 31.1648 16.0437L31.1662 17.1005V18.9563C31.1697 19.9901 31.1588 21.0239 31.1336 22.0574L31.1251 22.3323C31.1138 22.6496 31.0996 22.9627 31.0826 23.3409C31.0118 24.8482 30.7709 25.8767 30.4224 26.7792C30.0678 27.7252 29.5102 28.582 28.789 29.2895C28.0806 30.0096 27.224 30.567 26.2787 30.9229C25.3763 31.2728 24.3478 31.5108 22.8404 31.5817C22.4622 31.5987 22.1491 31.6128 21.8318 31.6242L21.5569 31.6327C20.5234 31.6579 19.4896 31.6687 18.4558 31.6653L17.399 31.6667H15.5446C14.5108 31.6702 13.477 31.6593 12.4435 31.6341L12.1687 31.6256C11.8324 31.6134 11.4962 31.5992 11.16 31.5831C9.65268 31.5123 8.62418 31.2714 7.72035 30.9229C6.77498 30.5678 5.91869 30.0103 5.21143 29.2895C4.49041 28.5816 3.9325 27.7249 3.5766 26.7792C3.22668 25.8767 2.98868 24.8482 2.91785 23.3409C2.90207 23.0048 2.8879 22.6685 2.87535 22.3323L2.86827 22.0574C2.84215 21.0239 2.83034 19.9901 2.83285 18.9563V16.0437C2.82889 15.0104 2.83928 13.977 2.86402 12.944L2.87393 12.6692C2.88527 12.3518 2.89943 12.0373 2.91643 11.6605C2.98727 10.1518 3.22527 9.12467 3.57518 8.22083C3.93129 7.27538 4.4903 6.41946 5.21285 5.71333C5.91962 4.9919 6.77538 4.43348 7.72035 4.07708C8.62418 3.72717 9.65126 3.48917 11.16 3.41833L12.1687 3.37583L12.4435 3.36875C13.4765 3.34265 14.5098 3.33084 15.5432 3.33333L18.4558 3.33475ZM16.9995 10.4181C16.061 10.4048 15.1292 10.5782 14.2582 10.9282C13.3873 11.2782 12.5946 11.7977 11.9262 12.4567C11.2578 13.1157 10.7271 13.901 10.3648 14.7669C10.0026 15.6328 9.81601 16.5621 9.81601 17.5007C9.81601 18.4393 10.0026 19.3686 10.3648 20.2345C10.7271 21.1004 11.2578 21.8857 11.9262 22.5447C12.5946 23.2037 13.3873 23.7233 14.2582 24.0732C15.1292 24.4232 16.061 24.5966 16.9995 24.5833C18.8781 24.5833 20.6798 23.8371 22.0082 22.5087C23.3366 21.1803 24.0828 19.3786 24.0828 17.5C24.0828 15.6214 23.3366 13.8197 22.0082 12.4913C20.6798 11.1629 18.8781 10.4181 16.9995 10.4181ZM16.9995 13.2514C17.5641 13.241 18.125 13.3432 18.6496 13.552C19.1743 13.7609 19.652 14.0722 20.055 14.4677C20.4579 14.8632 20.778 15.3351 20.9966 15.8557C21.2151 16.3764 21.3277 16.9353 21.3278 17.5C21.3279 18.0646 21.2155 18.6236 20.9971 19.1444C20.7787 19.6651 20.4588 20.137 20.056 20.5327C19.6531 20.9284 19.1755 21.2398 18.651 21.4488C18.1264 21.6578 17.5655 21.7602 17.0009 21.75C15.8738 21.75 14.7928 21.3022 13.9957 20.5052C13.1987 19.7082 12.7509 18.6272 12.7509 17.5C12.7509 16.3728 13.1987 15.2918 13.9957 14.4948C14.7928 13.6978 15.8738 13.25 17.0009 13.25L16.9995 13.2514ZM24.437 8.29308C23.98 8.31138 23.5478 8.5058 23.2309 8.83563C22.914 9.16546 22.737 9.60511 22.737 10.0625C22.737 10.5199 22.914 10.9595 23.2309 11.2894C23.5478 11.6192 23.98 11.8136 24.437 11.8319C24.9067 11.8319 25.3571 11.6453 25.6892 11.3133C26.0213 10.9812 26.2078 10.5307 26.2078 10.0611C26.2078 9.59143 26.0213 9.14101 25.6892 8.80892C25.3571 8.47682 24.9067 8.29025 24.437 8.29025V8.29308Z" fill="#01639E"/>
</svg>
