<svg width="28" height="29" viewBox="0 0 28 29" fill="none" xmlns="http://www.w3.org/2000/svg">
<path d="M13.9986 1.06006C6.57579 1.06006 0.558594 7.07726 0.558594 14.5001C0.558594 21.9229 6.57579 27.9401 13.9986 27.9401C21.4214 27.9401 27.4386 21.9229 27.4386 14.5001C27.4386 7.07726 21.4214 1.06006 13.9986 1.06006ZM10.7086 20.0707H7.98699V11.3123H10.7086V20.0707ZM9.33099 10.2371C8.47139 10.2371 7.91559 9.62806 7.91559 8.87486C7.91559 8.10626 8.48819 7.51546 9.36599 7.51546C10.2438 7.51546 10.7814 8.10626 10.7982 8.87486C10.7982 9.62806 10.2438 10.2371 9.33099 10.2371ZM20.6486 20.0707H17.927V15.2169C17.927 14.0871 17.5322 13.3199 16.548 13.3199C15.7962 13.3199 15.3496 13.8393 15.1522 14.3391C15.0794 14.5169 15.0612 14.7689 15.0612 15.0195V20.0693H12.3382V14.1053C12.3382 13.0119 12.3032 12.0977 12.2668 11.3109H14.6314L14.756 12.5275H14.8106C15.169 11.9563 16.0468 11.1135 17.5154 11.1135C19.306 11.1135 20.6486 12.3133 20.6486 14.8921V20.0707Z" fill="#01639E"/>
</svg>
