<svg width="34" height="34" viewBox="0 0 34 34" fill="none" xmlns="http://www.w3.org/2000/svg">
<circle cx="17" cy="18" r="13" fill="black"/>
<path d="M16.9987 2.89014C9.20703 2.89014 2.83203 9.25097 2.83203 17.0851C2.83203 24.1685 8.01703 30.0476 14.7887 31.1101V21.1935H11.1904V17.0851H14.7887V13.9543C14.7887 10.3985 16.8995 8.44347 20.1437 8.44347C21.6879 8.44347 23.3029 8.71264 23.3029 8.71264V12.2118H21.5179C19.7612 12.2118 19.2087 13.3026 19.2087 14.4218V17.0851H23.147L22.5095 21.1935H19.2087V31.1101C22.547 30.5829 25.5868 28.8796 27.7794 26.3077C29.972 23.7358 31.1729 20.4648 31.1654 17.0851C31.1654 9.25097 24.7904 2.89014 16.9987 2.89014Z" fill="white"/>
</svg>
