<svg width="72" height="73" viewBox="0 0 72 73" fill="none" xmlns="http://www.w3.org/2000/svg">
<rect width="72" height="72" transform="translate(0 0.5)" fill="#E3F5FF" fill-opacity="0.15"/>
<path d="M32.227 17.1301C32.227 19.4132 32.1995 20.1284 32.1169 20.1834C32.0528 20.2201 31.7135 20.2751 31.3651 20.3026L30.7324 20.3484L32.0986 21.8797C32.8505 22.714 33.4831 23.4109 33.5106 23.4109C33.5381 23.4109 34.1708 22.714 34.9227 21.8797L36.2888 20.3484L35.6562 20.3026C35.3078 20.2751 34.9685 20.2201 34.9135 20.1834C34.8218 20.1284 34.7943 19.4132 34.7943 17.1301V14.1593H33.5106H32.227V17.1301Z" fill="white"/>
<path d="M16.9145 25.6482C16.9145 27.8304 16.887 28.6373 16.8045 28.7198C16.7403 28.784 16.4285 28.8299 16.0618 28.8299C15.695 28.8299 15.4475 28.8665 15.4658 28.9216C15.5208 29.0866 18.134 31.9565 18.2073 31.929C18.299 31.8923 20.9489 28.9491 20.9489 28.8849C20.9489 28.8574 20.6646 28.8299 20.3254 28.8299C19.9586 28.8299 19.656 28.784 19.5919 28.7198C19.5093 28.6373 19.4818 27.8304 19.4818 25.6482V22.6866H18.1982H16.9145V25.6482Z" fill="white"/>
<path d="M47.5393 25.6482C47.5393 27.8304 47.5118 28.6373 47.4293 28.7198C47.3651 28.784 47.0625 28.8299 46.6958 28.8299C46.3565 28.8299 46.0723 28.8574 46.0723 28.8849C46.0723 28.9491 48.7221 31.8923 48.8138 31.929C48.8872 31.9565 51.5003 29.0866 51.5553 28.9216C51.5737 28.8665 51.3261 28.8299 50.9594 28.8299C50.5926 28.8299 50.2808 28.784 50.2167 28.7198C50.1341 28.6373 50.1066 27.8304 50.1066 25.6482V22.6866H48.823H47.5393V25.6482Z" fill="white"/>
<path d="M30.8061 25.5748C27.6153 26.024 25.2222 26.996 23.9568 28.3438C23.315 29.0406 23.1133 29.4899 23.1133 30.251C23.1133 31.067 23.4067 31.6447 24.2044 32.3873C24.8921 33.0292 25.5431 33.4143 26.68 33.8819C28.578 34.6704 30.8703 35.0647 33.511 35.0647C36.1516 35.0647 38.4439 34.6704 40.3419 33.8819C41.4788 33.4143 42.1298 33.0292 42.8175 32.3873C43.5969 31.6722 43.9086 31.067 43.9086 30.2968C43.9086 29.5358 43.6794 28.9948 43.0376 28.3255C41.8914 27.106 39.7917 26.1983 37.0043 25.694C35.6107 25.4464 32.1906 25.3822 30.8061 25.5748ZM33.731 26.2899C33.8319 26.3633 33.9144 26.5742 33.9419 26.8401C33.9877 27.2344 34.0152 27.271 34.2353 27.271C34.3637 27.271 34.7304 27.3902 35.0422 27.5369C35.8582 27.922 36.3258 28.6922 35.9407 29.0131C35.7299 29.1874 35.3814 29.0498 35.2531 28.7472C35.1339 28.4538 34.5379 28.0962 34.1711 28.0962C33.9786 28.0962 33.9694 28.1329 33.9694 29.0315V29.9759L34.5012 30.1318C35.8124 30.5169 36.4359 31.5071 35.9041 32.3782C35.7023 32.7083 35.088 33.0934 34.6112 33.185C34.0152 33.2951 33.9969 33.3134 33.9419 33.7077C33.8961 34.0469 33.6943 34.3312 33.511 34.3312C33.3092 34.3312 33.1167 34.0378 33.08 33.6802C33.0342 33.2676 33.0342 33.2676 32.5574 33.1575C31.4479 32.9008 30.5402 31.7363 31.1545 31.3604C31.3562 31.232 31.5763 31.3604 31.7688 31.7272C31.9155 31.9931 32.5849 32.4057 32.8875 32.4057C33.0342 32.4057 33.0525 32.3048 33.0525 31.5071V30.6086L32.5299 30.4435C31.6038 30.1684 31.0353 29.5725 31.0353 28.8939C31.0353 28.1237 31.7138 27.4636 32.6674 27.3077C33.025 27.2527 33.0342 27.2435 33.08 26.8309C33.1167 26.4642 33.3092 26.1707 33.511 26.1707C33.5385 26.1707 33.6393 26.2258 33.731 26.2899Z" fill="white"/>
<path d="M32.3644 28.2431C32.2177 28.3256 32.0343 28.454 31.9793 28.5365C31.8051 28.7474 31.8326 29.1417 32.0251 29.3159C32.1902 29.4718 32.7953 29.7468 32.9604 29.7468C33.0154 29.7468 33.052 29.4259 33.052 28.9216C33.052 28.1239 33.0429 28.0964 32.8503 28.0964C32.7311 28.1056 32.5202 28.1698 32.3644 28.2431Z" fill="white"/>
<path d="M33.9688 31.6629V32.4973L34.2255 32.4423C35.0048 32.2773 35.3258 31.9838 35.2341 31.5162C35.2066 31.342 34.6381 30.9936 34.2255 30.8927L33.9688 30.8286V31.6629Z" fill="white"/>
<path d="M23.0763 33.7078C23.1038 34.8172 23.1221 34.9731 23.3605 35.4499C24.1307 37.0178 26.6247 38.3106 30.0997 38.9341C31.0991 39.1083 31.5759 39.145 33.5106 39.145C35.4544 39.145 35.9129 39.1083 36.9398 38.925C40.3874 38.3106 42.8905 37.0178 43.6607 35.4499C43.8991 34.9731 43.9174 34.8264 43.9449 33.7078C43.9816 32.5066 43.9174 32.2499 43.6882 32.6717C43.5323 32.9651 42.2212 33.9003 41.3868 34.3038C39.2137 35.3674 36.6189 35.89 33.4923 35.89C29.2195 35.89 25.5886 34.8081 23.5622 32.9101C23.3146 32.6809 23.0946 32.4975 23.0763 32.4975C23.0579 32.4975 23.0579 33.0476 23.0763 33.7078Z" fill="white"/>
<path d="M23.0586 37.6596C23.0586 38.879 23.1961 39.4108 23.6546 40.0343C25.1125 42.0148 29.5961 43.4269 33.9881 43.3077L35.1434 43.271L35.8677 42.5742C36.2712 42.1891 36.8855 41.7031 37.2339 41.5014C38.6093 40.6853 40.7731 39.9702 42.5519 39.7409C43.6614 39.5942 43.7347 39.5576 43.8631 39.0624C43.9731 38.5948 44.0006 36.6235 43.8906 36.6235C43.8539 36.6235 43.6522 36.7885 43.4597 36.9994C42.4144 38.0722 40.3422 39.0533 38.0408 39.5576C35.2534 40.1627 31.7692 40.1627 28.9726 39.5576C26.6712 39.0533 24.6082 38.0813 23.5629 36.9994C23.3703 36.7885 23.1686 36.6235 23.1319 36.6235C23.0953 36.6235 23.0586 37.0911 23.0586 37.6596Z" fill="white"/>
<path d="M43.7813 40.392C39.0042 40.878 35.4375 42.9135 35.4375 45.1508C35.4375 47.0579 37.9773 48.8275 41.81 49.5977C46.9079 50.6155 52.7578 49.5886 55.2151 47.2321C55.9761 46.5078 56.2512 45.9485 56.2512 45.1599C56.2512 44.3897 56.0403 43.9313 55.4076 43.2619C54.8208 42.6385 54.3899 42.3359 53.4363 41.8591C52.1801 41.2356 50.6581 40.7863 48.916 40.5204C47.7332 40.3462 44.9549 40.2728 43.7813 40.392ZM46.1469 41.2264C46.2111 41.2906 46.2569 41.5107 46.2569 41.7215C46.2569 42.0883 46.2661 42.1066 46.6054 42.1708C47.1738 42.2717 47.8707 42.6385 48.1091 42.9594C48.4575 43.427 48.5034 43.6379 48.2741 43.8671C48.0449 44.0963 47.7973 44.0046 47.5956 43.6012C47.4489 43.3353 47.0271 43.0786 46.5412 42.9869L46.2569 42.9227V43.8854V44.839L46.8163 45.0132C47.8524 45.3158 48.5125 46.0218 48.4208 46.737C48.3383 47.4338 47.6048 48.0207 46.6696 48.149L46.2569 48.204V48.58C46.2569 49.0109 46.1377 49.1851 45.826 49.1851C45.5784 49.1851 45.4317 48.9376 45.4317 48.5158C45.4317 48.2132 45.4134 48.204 44.9091 48.0573C44.2489 47.874 43.873 47.6356 43.5704 47.2413C43.2312 46.792 43.1945 46.5628 43.4054 46.3519C43.6438 46.1135 43.9005 46.196 44.0839 46.572C44.2306 46.8837 44.6707 47.1679 45.1842 47.2963L45.4317 47.3513V46.4436V45.5359L44.8357 45.3341C44.1114 45.0957 43.7171 44.784 43.4879 44.2614C43.2862 43.8121 43.3595 43.3445 43.6988 42.9135C43.928 42.6293 44.6065 42.2717 45.0925 42.18C45.4042 42.125 45.4317 42.0975 45.4317 41.7949C45.4317 41.6207 45.4776 41.3915 45.5234 41.2906C45.6335 41.0981 45.9819 41.0614 46.1469 41.2264Z" fill="white"/>
<path d="M44.9259 43.051C44.5866 43.1519 44.3941 43.3078 44.2565 43.5645C44.0365 43.9679 44.4032 44.3805 45.1734 44.6098L45.4302 44.6831V43.812C45.4302 42.886 45.4393 42.8951 44.9259 43.051Z" fill="white"/>
<path d="M46.2559 46.5351V47.3787L46.641 47.3145C47.3653 47.1953 47.8054 46.7368 47.567 46.3517C47.457 46.1775 46.861 45.8383 46.5126 45.7557L46.2559 45.7007V46.5351Z" fill="white"/>
<path d="M23.0756 41.9597C23.1031 43.0784 23.1306 43.2159 23.3598 43.6652C24.4693 45.7924 28.5311 47.3328 33.1432 47.3786L34.5644 47.397L34.6102 45.8841C34.6377 45.0497 34.6836 44.3254 34.7202 44.2703C34.7661 44.197 34.2801 44.1511 33.024 44.1145C32.052 44.087 30.8509 43.9953 30.3466 43.9127C27.4217 43.4543 25.0836 42.5191 23.7174 41.2537C23.4148 40.9787 23.1398 40.7494 23.1031 40.7494C23.0664 40.7494 23.0572 41.2996 23.0756 41.9597Z" fill="white"/>
<path d="M23.0757 46.0218C23.1124 47.1863 23.1399 47.3513 23.3508 47.7731C23.7542 48.5341 24.7353 49.3685 25.9365 49.9553C28.2379 51.0831 30.6952 51.5416 34.0877 51.4866L34.6104 51.4774V49.8912V48.2957L33.0333 48.2407C28.7239 48.0757 25.478 47.0304 23.525 45.1966L23.0391 44.7382L23.0757 46.0218Z" fill="white"/>
<path d="M35.4375 48.6166C35.4375 49.7535 35.4467 49.8177 35.7217 50.3587C36.5561 52.0366 39.3343 53.3936 43.0203 53.9163C44.3223 54.0996 47.0913 54.1272 48.3658 53.9621C50.6489 53.6687 52.6661 53.0544 54.124 52.1925C54.4082 52.0274 54.94 51.5965 55.2976 51.2481C56.1412 50.4137 56.2512 50.102 56.2512 48.5707V47.4338L55.7194 47.883C53.638 49.6618 50.5939 50.6429 46.6237 50.808C42.3051 50.9822 37.7939 49.7169 35.9418 47.8189C35.7492 47.608 35.5475 47.4429 35.5109 47.4429C35.4742 47.4429 35.4375 47.9747 35.4375 48.6166Z" fill="white"/>
<path d="M23.0666 50.111C23.1032 51.2388 23.1216 51.3855 23.36 51.8623C23.8184 52.7976 25.1021 53.7878 26.6333 54.4021C28.6688 55.209 30.3743 55.5208 33.2167 55.5758C35.5273 55.6308 35.5089 55.6308 35.1513 55.1357C34.8029 54.6405 34.6104 53.9254 34.6104 53.0726V52.2749L34.0694 52.33C33.3267 52.3941 31.0528 52.2474 30.0075 52.0732C27.156 51.5873 25.0654 50.6979 23.525 49.3133L23.0391 48.8732L23.0666 50.111Z" fill="white"/>
<path d="M35.4375 52.5868C35.4375 53.898 35.5109 54.2281 35.9326 54.8424C36.9596 56.3461 39.7103 57.5564 43.1853 58.0424C44.5882 58.2349 47.9716 58.1799 49.2369 57.9507C52.7761 57.2997 55.1784 56.0619 55.9669 54.4848C56.242 53.9438 56.2512 53.8796 56.2512 52.6877V51.459L55.8202 51.89C53.8947 53.7879 50.2363 54.8974 45.8902 54.9066C43.9739 54.9066 42.9561 54.8057 41.3424 54.4481C38.9767 53.9255 37.2071 53.1186 36.0151 51.9908L35.4375 51.459V52.5868Z" fill="white"/>
</svg>
