<svg width="72" height="73" viewBox="0 0 72 73" fill="none" xmlns="http://www.w3.org/2000/svg">
<rect width="72" height="72" transform="translate(0 0.5)" fill="white" fill-opacity="0.25"/>
<path d="M34.6206 14.6473C32.2826 15.2548 29.9445 17.5561 28.26 20.8975C27.5788 22.2322 26.9252 23.8707 27.0357 23.972C27.1738 24.1008 29.2081 24.736 29.5119 24.736C29.6683 24.7452 30.1746 24.5703 30.6441 24.3586C31.7855 23.8523 32.8717 23.5393 34.1788 23.3552L35.265 23.1987V18.8448C35.265 16.4607 35.2374 14.5 35.2005 14.5092C35.1545 14.5092 34.8968 14.5737 34.6206 14.6473Z" fill="white"/>
<path d="M36.7363 18.8448V23.1987L37.8225 23.3552C39.1296 23.5393 40.2158 23.8523 41.3572 24.3586C41.8267 24.5703 42.3422 24.7452 42.4895 24.736C42.7932 24.736 44.8275 24.1008 44.9656 23.972C45.1773 23.7787 43.6309 20.4833 42.6183 18.9644C40.8878 16.3963 39.148 15.0339 36.9941 14.5553L36.7363 14.5V18.8448Z" fill="white"/>
<path d="M29.4639 15.4577C27.6597 16.0284 25.9016 16.8108 24.4472 17.7221C23.7936 18.1271 22.0355 19.425 21.4555 19.9313L21.1426 20.2074L21.6857 20.769C22.4681 21.5606 23.6279 22.4074 24.6773 22.9597L25.5702 23.4292L25.8279 22.7572C26.9233 19.9221 28.258 17.6945 29.8689 16.0008C30.3108 15.5313 30.6237 15.1447 30.5593 15.1447C30.4857 15.1539 29.9978 15.292 29.4639 15.4577Z" fill="white"/>
<path d="M42.1211 15.9915C43.7503 17.7036 45.0575 19.8852 46.1713 22.7572L46.429 23.4199L47.0826 23.0885C48.1135 22.5731 49.1905 21.8183 50.0374 21.0174C50.47 20.6124 50.8198 20.2534 50.8198 20.2166C50.8198 20.1061 49.1721 18.799 48.2884 18.2099C47.1838 17.4735 46.1621 16.9028 45.039 16.3965C44.1185 15.9823 42.2499 15.3195 41.6148 15.1907C41.3018 15.1262 41.311 15.1446 42.1211 15.9915Z" fill="white"/>
<path d="M19.5049 21.8825C16.3015 25.5645 14.3317 30.2223 14.0279 34.8524L13.9727 35.7637H18.345H22.7174L22.7818 35.1377C22.8831 34.1804 23.0948 33.2415 23.4814 32.0356C23.7023 31.3637 23.9325 30.3419 24.0797 29.4122C24.2915 28.1327 24.8898 25.5001 25.0923 24.9846C25.1383 24.865 24.9726 24.7361 24.3099 24.4047C23.1961 23.8432 22.0823 23.07 20.9777 22.1035C20.4898 21.6616 20.0664 21.3118 20.048 21.3118C20.0203 21.3118 19.781 21.5696 19.5049 21.8825Z" fill="white"/>
<path d="M51.0025 22.1035C49.9992 23.0055 48.6092 23.9629 47.5691 24.4783C47.0076 24.7545 46.8603 24.865 46.9063 24.9846C47.1088 25.4909 47.7072 28.1235 47.9189 29.4122C48.0661 30.3235 48.3055 31.3729 48.5172 32.0356C48.9038 33.2415 49.1155 34.1896 49.2168 35.1377L49.2812 35.7637H53.6536H58.026L57.9707 34.8524C57.7314 31.244 56.3967 27.3779 54.3071 24.2574C53.6076 23.2173 52.1532 21.3947 51.9691 21.3486C51.9138 21.3302 51.4812 21.68 51.0025 22.1035Z" fill="white"/>
<path d="M33.8641 24.8649C32.2164 25.1595 30.4583 25.9051 29.0867 26.89C28.2399 27.5068 26.9051 28.8507 26.3068 29.6976C25.3679 31.0231 24.6407 32.7905 24.3553 34.4381C24.1712 35.4783 24.1805 37.531 24.3553 38.5804C24.7604 40.8816 25.8374 42.9804 27.5035 44.7017C28.5252 45.7511 29.4641 46.4507 30.7068 47.0674C32.4373 47.9327 33.9654 48.2825 35.9997 48.2825C38.5034 48.2825 40.5746 47.6565 42.6733 46.2758C43.5017 45.7235 45.2231 44.0021 45.7754 43.1737C47.1561 41.075 47.7821 39.0038 47.7821 36.5001C47.7821 33.2139 46.6775 30.4984 44.3946 28.188C42.6365 26.4114 40.4825 25.2792 38.0524 24.8557C37.0675 24.6808 34.8306 24.6901 33.8641 24.8649ZM43.1612 29.6423C43.6122 29.8356 44.1737 30.3787 44.3854 30.839C44.6432 31.3821 44.6156 32.2105 44.3302 32.7812C44.008 33.4348 34.3888 43.0356 33.7905 43.3026C33.2106 43.5603 32.4926 43.5511 31.9034 43.275C31.2499 42.962 27.706 39.3812 27.5219 38.8473C27.0156 37.3193 28.0926 35.7729 29.6758 35.7637C29.9704 35.7637 30.357 35.8281 30.5411 35.9017C30.7252 35.9846 31.2959 36.454 31.8114 36.9603C32.3177 37.4666 32.7779 37.8808 32.8239 37.8808C32.8792 37.8808 34.7202 36.0766 36.9202 33.8766C39.9302 30.8758 41.0256 29.8356 41.3386 29.6976C41.8448 29.4674 42.6733 29.449 43.1612 29.6423Z" fill="white"/>
<path d="M37.5648 35.3496C33.533 39.3629 33.1556 39.7219 32.8795 39.7219C32.6033 39.7219 32.4192 39.5747 31.3054 38.4793C30.1456 37.3378 30.0167 37.2366 29.7037 37.2366C29.2159 37.2366 28.9121 37.5588 28.9121 38.0835C28.9121 38.4701 28.9397 38.4977 30.6887 40.2466C32.456 42.0232 32.4652 42.0232 32.8703 42.0232H33.2845L38.1815 37.1169L43.0878 32.2199V31.8241C43.0878 31.2994 42.784 30.9772 42.287 30.9772C41.9556 30.9772 41.7899 31.1337 37.5648 35.3496Z" fill="white"/>
<path d="M26.4724 25.4814C26.3435 25.8312 25.8832 27.709 25.9201 27.7367C25.9569 27.7827 27.8255 26.0429 27.8807 25.9141C27.8899 25.8772 27.5862 25.7392 27.2088 25.6103C26.7025 25.4446 26.5 25.4078 26.4724 25.4814Z" fill="white"/>
<path d="M44.7637 25.6289C44.4047 25.7577 44.1101 25.8866 44.1194 25.9234C44.1746 26.0339 46.0432 27.7828 46.08 27.746C46.126 27.6908 45.5829 25.5184 45.5001 25.4448C45.4633 25.4079 45.1319 25.4908 44.7637 25.6289Z" fill="white"/>
<path d="M14.0279 38.1477C14.3409 42.8699 16.3475 47.5368 19.689 51.3201L20.048 51.7251L20.9316 50.9335C22.0086 49.9761 23.1777 49.1661 24.3099 48.5954C24.9726 48.264 25.1383 48.1351 25.0923 48.0155C24.8898 47.5 24.2915 44.8674 24.0797 43.5879C23.9325 42.6582 23.7023 41.6364 23.4814 40.9645C23.0948 39.7586 22.8831 38.8197 22.7818 37.8532L22.7174 37.2364H18.345H13.9727L14.0279 38.1477Z" fill="white"/>
<path d="M49.2168 37.8532C49.1155 38.8197 48.9038 39.7586 48.5172 40.9645C48.2963 41.6272 48.0661 42.6674 47.9189 43.5695C47.7164 44.849 47.1088 47.5276 46.9063 48.0155C46.8603 48.1351 47.0076 48.2456 47.5691 48.5218C48.6277 49.0464 50.0176 50.0038 51.0394 50.9151L51.9507 51.7251L52.3097 51.3201C55.6511 47.5368 57.6301 42.9343 57.9615 38.1753L58.026 37.2364H53.6536H49.2812L49.2168 37.8532Z" fill="white"/>
<path d="M25.9033 45.3922C25.9309 45.4934 26.069 45.9997 26.2071 46.5336C26.3452 47.0675 26.4648 47.5277 26.4832 47.5646C26.52 47.6198 27.7903 47.224 27.8916 47.1227C27.9284 47.0859 26.0782 45.3093 25.9493 45.2541C25.8941 45.2357 25.8757 45.3001 25.9033 45.3922Z" fill="white"/>
<path d="M45.0305 46.1742C44.5058 46.6805 44.0916 47.1039 44.11 47.1223C44.2572 47.2236 45.4907 47.6102 45.5183 47.5549C45.5459 47.5181 45.6656 47.0579 45.8037 46.5332C45.9326 45.9993 46.0614 45.493 46.089 45.401C46.1167 45.3181 46.1075 45.2445 46.0614 45.2445C46.0246 45.2537 45.5552 45.6679 45.0305 46.1742Z" fill="white"/>
<path d="M29.3278 48.2548C28.8031 48.3837 27.1094 48.9544 27.0357 49.0281C26.9253 49.1201 27.5788 50.7586 28.2416 52.0657C30.0642 55.6649 32.4022 57.8741 35.0164 58.4448L35.265 58.5V54.1552V49.8013L34.1788 49.6448C32.8901 49.4607 31.8039 49.1569 30.6441 48.6414C29.6683 48.218 29.5855 48.1904 29.3278 48.2548Z" fill="white"/>
<path d="M41.974 48.3745C40.8786 48.9544 39.0652 49.4975 37.6384 49.6816L36.7363 49.7921V54.146V58.5L36.9941 58.4448C39.1849 57.9661 41.0351 56.4749 42.7932 53.787C43.6953 52.3879 45.1589 49.2029 44.9656 49.0281C44.8735 48.936 43.0141 48.3285 42.5815 48.2456C42.3974 48.218 42.1949 48.2548 41.974 48.3745Z" fill="white"/>
<path d="M24.6887 50.0313C24.2193 50.2799 23.5565 50.6849 23.2252 50.9242C22.5992 51.366 21.1816 52.664 21.1816 52.7928C21.1816 52.8941 22.9582 54.2932 23.8051 54.8547C24.7624 55.4899 25.9867 56.1711 27.0452 56.6405C27.9013 57.0271 29.7883 57.6899 30.3866 57.8095C30.7088 57.874 30.6996 57.8648 29.9632 57.11C29.5582 56.6865 29.0335 56.079 28.7942 55.766C27.8277 54.4957 26.7138 52.4522 25.9682 50.5836C25.7565 50.0497 25.5724 49.6079 25.5632 49.5987C25.554 49.5895 25.1674 49.7828 24.6887 50.0313Z" fill="white"/>
<path d="M46.0788 50.4732C45.0018 53.2255 43.6671 55.4255 42.0378 57.11C41.3014 57.8648 41.2922 57.874 41.6144 57.8095C42.2311 57.6807 44.1089 57.0179 45.0294 56.6129C46.0972 56.1342 47.2571 55.4807 48.2328 54.8363C49.052 54.284 50.8194 52.8941 50.8194 52.7928C50.8194 52.756 50.4696 52.3878 50.037 51.9828C49.1901 51.1819 48.1131 50.4271 47.0822 49.9117L46.4286 49.5803L46.0788 50.4732Z" fill="white"/>
</svg>
