<svg width="34" height="34" viewBox="0 0 34 34" fill="none" xmlns="http://www.w3.org/2000/svg">
<circle cx="17.5" cy="17.5" r="13.5" fill="black"/>
<path d="M18.4558 2.83475C19.4896 2.83078 20.5234 2.84117 21.5569 2.86592L21.8318 2.87583C22.1491 2.88717 22.4622 2.90133 22.8404 2.91833C24.3478 2.98917 25.3763 3.22717 26.2787 3.57708C27.2137 3.93692 28.0013 4.42425 28.789 5.21192C29.5092 5.91969 30.0666 6.77584 30.4224 7.72083C30.7723 8.62325 31.0103 9.65317 31.0812 11.1605C31.0982 11.5373 31.1123 11.8518 31.1237 12.1692L31.1322 12.444C31.1574 13.477 31.1682 14.5103 31.1648 15.5437L31.1662 16.6005V18.4563C31.1697 19.4901 31.1588 20.5239 31.1336 21.5574L31.1251 21.8323C31.1138 22.1496 31.0996 22.4627 31.0826 22.8409C31.0118 24.3482 30.7709 25.3768 30.4224 26.2792C30.0678 27.2252 29.5102 28.082 28.789 28.7895C28.0806 29.5096 27.224 30.067 26.2787 30.4229C25.3763 30.7728 24.3478 31.0108 22.8404 31.0817C22.4622 31.0987 22.1491 31.1128 21.8318 31.1242L21.5569 31.1327C20.5234 31.1579 19.4896 31.1687 18.4558 31.1653L17.399 31.1667H15.5446C14.5108 31.1702 13.477 31.1593 12.4435 31.1341L12.1687 31.1256C11.8324 31.1134 11.4962 31.0992 11.16 31.0831C9.65268 31.0123 8.62418 30.7714 7.72035 30.4229C6.77498 30.0678 5.91868 29.5103 5.21143 28.7895C4.49041 28.0816 3.9325 27.2249 3.5766 26.2792C3.22668 25.3768 2.98868 24.3482 2.91785 22.8409C2.90207 22.5048 2.8879 22.1685 2.87535 21.8323L2.86827 21.5574C2.84215 20.5239 2.83034 19.4901 2.83285 18.4563V15.5437C2.82889 14.5104 2.83928 13.477 2.86402 12.444L2.87393 12.1692C2.88527 11.8518 2.89943 11.5373 2.91643 11.1605C2.98727 9.65175 3.22527 8.62467 3.57518 7.72083C3.93129 6.77538 4.4903 5.91946 5.21285 5.21333C5.91962 4.4919 6.77538 3.93348 7.72035 3.57708C8.62418 3.22717 9.65126 2.98917 11.16 2.91833L12.1687 2.87583L12.4435 2.86875C13.4765 2.84265 14.5098 2.83084 15.5432 2.83333L18.4558 2.83475ZM16.9995 9.91808C16.061 9.90481 15.1292 10.0782 14.2582 10.4282C13.3873 10.7782 12.5946 11.2977 11.9262 11.9567C11.2578 12.6157 10.7271 13.401 10.3648 14.2669C10.0026 15.1328 9.81601 16.0621 9.81601 17.0007C9.81601 17.9393 10.0026 18.8686 10.3648 19.7345C10.7271 20.6004 11.2578 21.3857 11.9262 22.0447C12.5946 22.7037 13.3873 23.2233 14.2582 23.5732C15.1292 23.9232 16.061 24.0966 16.9995 24.0833C18.8781 24.0833 20.6798 23.3371 22.0082 22.0087C23.3366 20.6803 24.0828 18.8786 24.0828 17C24.0828 15.1214 23.3366 13.3197 22.0082 11.9913C20.6798 10.6629 18.8781 9.91808 16.9995 9.91808ZM16.9995 12.7514C17.5641 12.741 18.125 12.8432 18.6496 13.052C19.1743 13.2609 19.652 13.5722 20.0549 13.9677C20.4579 14.3632 20.778 14.8351 20.9966 15.3557C21.2151 15.8764 21.3277 16.4353 21.3278 17C21.3279 17.5646 21.2155 18.1236 20.9971 18.6444C20.7787 19.1651 20.4588 19.637 20.056 20.0327C19.6531 20.4284 19.1755 20.7398 18.651 20.9488C18.1264 21.1578 17.5655 21.2602 17.0009 21.25C15.8738 21.25 14.7928 20.8022 13.9957 20.0052C13.1987 19.2082 12.7509 18.1272 12.7509 17C12.7509 15.8728 13.1987 14.7918 13.9957 13.9948C14.7928 13.1978 15.8738 12.75 17.0009 12.75L16.9995 12.7514ZM24.437 7.79308C23.98 7.81138 23.5478 8.0058 23.2309 8.33563C22.914 8.66546 22.737 9.10511 22.737 9.5625C22.737 10.0199 22.914 10.4595 23.2309 10.7894C23.5478 11.1192 23.98 11.3136 24.437 11.3319C24.9067 11.3319 25.3571 11.1453 25.6892 10.8133C26.0213 10.4812 26.2078 10.0307 26.2078 9.56108C26.2078 9.09143 26.0213 8.64101 25.6892 8.30892C25.3571 7.97682 24.9067 7.79025 24.437 7.79025V7.79308Z" fill="white"/>
</svg>
