<svg width="30" height="30" viewBox="0 0 30 30" fill="none" xmlns="http://www.w3.org/2000/svg">
<path d="M14.9987 0.890137C7.20703 0.890137 0.832031 7.25097 0.832031 15.0851C0.832031 22.1685 6.01703 28.0476 12.7887 29.1101V19.1935H9.19036V15.0851H12.7887V11.9543C12.7887 8.39847 14.8995 6.44347 18.1437 6.44347C19.6879 6.44347 21.3029 6.71264 21.3029 6.71264V10.2118H19.5179C17.7612 10.2118 17.2087 11.3026 17.2087 12.4218V15.0851H21.147L20.5095 19.1935H17.2087V29.1101C20.547 28.5829 23.5868 26.8796 25.7794 24.3077C27.972 21.7358 29.1729 18.4648 29.1654 15.0851C29.1654 7.25097 22.7904 0.890137 14.9987 0.890137Z" fill="white"/>
</svg>
