<svg width="28" height="29" viewBox="0 0 28 29" fill="none" xmlns="http://www.w3.org/2000/svg">
<path d="M16.2428 14.2663L13.0984 12.7991C12.824 12.6717 12.5986 12.8145 12.5986 13.1183V15.8819C12.5986 16.1857 12.824 16.3285 13.0984 16.2011L16.2414 14.7339C16.5172 14.6051 16.5172 14.3951 16.2428 14.2663ZM13.9986 1.06006C6.57579 1.06006 0.558594 7.07726 0.558594 14.5001C0.558594 21.9229 6.57579 27.9401 13.9986 27.9401C21.4214 27.9401 27.4386 21.9229 27.4386 14.5001C27.4386 7.07726 21.4214 1.06006 13.9986 1.06006ZM13.9986 19.9601C7.11899 19.9601 6.99859 19.3399 6.99859 14.5001C6.99859 9.66026 7.11899 9.04006 13.9986 9.04006C20.8782 9.04006 20.9986 9.66026 20.9986 14.5001C20.9986 19.3399 20.8782 19.9601 13.9986 19.9601Z" fill="#01639E"/>
</svg>
